<?xml version="1.0" encoding="UTF-8"?>
<svg width="159px" height="159px" viewBox="0 0 159 159" version="1.1" xmlns="http://www.w3.org/2000/svg" xmlns:xlink="http://www.w3.org/1999/xlink">
    <!-- Generator: Sketch 48.2 (47327) - http://www.bohemiancoding.com/sketch -->
    <title>calc</title>
    <desc>Created with Sketch.</desc>
    <defs></defs>
    <g id="Artboard-4" stroke="none" stroke-width="1" fill="none" fill-rule="evenodd" transform="translate(-1307.000000, -675.000000)">
        <g id="calc" transform="translate(1307.000000, 675.000000)">
            <circle id="Oval-6" fill="#D8D8D8" cx="79.5" cy="79.5" r="79.5"></circle>
            <g id="calcc" transform="translate(37.000000, 32.000000)" fill="#545454">
                <path d="M77.9025528,96 C82.9445708,96 86.9978204,91.9644907 86.9978204,86.9445407 L86.9978204,9.05545934 C87.1091006,4.03550925 82.9445708,0 77.9025528,0 L9.09526751,0 C4.05324952,0 0,4.03550925 0,9.05545934 L0,86.9445407 C0,91.9644907 4.05324952,96 9.09526751,96 L77.9025528,96 Z M3.17625439,86.9445407 L3.17625439,9.05545934 C3.17625439,5.89355406 5.80420466,3.27274215 8.98438169,3.27274215 L77.9023337,3.27274215 C81.0781388,3.27274215 83.710472,5.88919041 83.710472,9.05545934 L83.710472,86.9445407 C83.710472,90.1064459 81.0825217,92.7272579 77.9023337,92.7272579 L9.09504837,92.7272579 C5.80791911,92.7272579 3.17569558,90.1108096 3.17569558,86.9445407 L3.17625439,86.9445407 Z" id="Fill-1"></path>
                <path d="M17.1305758,32 L70.8694242,32 C74.2639175,32 77,29.2478579 77,25.8334404 L77,14.1665596 C77,10.7521421 74.2639175,8 70.8694242,8 L17.1305758,8 C13.7360825,8 11,10.7521421 11,14.1665596 L11,25.9446269 C11.1111506,29.2471974 13.8472769,31.9993395 17.1305758,31.9993395 L17.1305758,32 Z M14.3944933,14.1672202 C14.3944933,12.627782 15.7069374,11.303231 17.2417702,11.303231 L70.9806186,11.303231 C72.5110737,11.303231 73.8278954,12.6233785 73.8278954,14.1672202 L73.8278954,25.9452874 C73.8278954,27.4847256 72.5154514,28.8092766 70.9806186,28.8092766 L17.1312325,28.8092766 C15.6007774,28.8092766 14.2839556,27.489129 14.2839556,25.9452874 L14.2882348,14.1672202 L14.3944933,14.1672202 Z" id="Fill-2"></path>
                <path d="M26.5307661,36 L18.4692339,36 C15.962209,36 14,38.014205 14,40.5876629 L14,47.4123371 C14,49.985795 15.962209,52 18.4692339,52 L26.5307661,52 C29.037791,52 31,49.985795 31,47.4123371 L31,40.5876629 C31,38.014205 29.037791,36 26.5307661,36 Z M28.8207363,47.4076394 C28.8207363,48.7489514 27.7311045,49.7582909 26.5307661,49.7582909 L18.4692339,49.7582909 C17.1625474,49.7582909 16.1792637,48.6397852 16.1792637,47.4076394 L16.1792637,40.5829652 C16.1792637,39.2416532 17.2688955,38.2323136 18.4692339,38.2323136 L26.5307661,38.2323136 C27.8374526,38.2323136 28.8207363,39.3508193 28.8207363,40.5829652 L28.8207363,47.4076394 Z" id="Fill-3"></path>
                <path d="M47.5307661,36 L39.4692339,36 C36.962209,36 35,38.014205 35,40.5876629 L35,47.4123371 C35,49.985795 36.962209,52 39.4692339,52 L47.5307661,52 C50.037791,52 52,49.985795 52,47.4123371 L52,40.5876629 C52,38.014205 50.037791,36 47.5307661,36 Z M49.8207363,47.4076394 C49.8207363,48.7489514 48.7311045,49.7582909 47.5307661,49.7582909 L39.4692339,49.7582909 C38.1625474,49.7582909 37.1792637,48.6397852 37.1792637,47.4076394 L37.1792637,40.5829652 C37.1792637,39.2416532 38.2688955,38.2323136 39.4692339,38.2323136 L47.5307661,38.2323136 C48.8374526,38.2323136 49.8207363,39.3508193 49.8207363,40.5829652 L49.8207363,47.4076394 Z" id="Fill-4"></path>
                <path d="M67.5307661,36 L59.4692339,36 C56.962209,36 55,38.014205 55,40.5876629 L55,47.4123371 C55,49.985795 56.962209,52 59.4692339,52 L67.5307661,52 C70.037791,52 72,49.985795 72,47.4123371 L72,40.5876629 C71.9957504,38.014205 69.9271934,36 67.5307661,36 Z M69.8164868,47.4076394 C69.8164868,48.7489514 68.7268549,49.7582909 67.5265165,49.7582909 L59.4649844,49.7582909 C58.1582979,49.7582909 57.1750141,48.6397852 57.1750141,47.4076394 L57.1750141,40.5829652 C57.1750141,39.2416532 58.2646459,38.2323136 59.4649844,38.2323136 L67.5265165,38.2323136 C68.833203,38.2323136 69.8164868,39.3508193 69.8164868,40.5829652 L69.8164868,47.4076394 Z" id="Fill-5"></path>
                <path d="M26.5307661,54 L18.4692339,54 C15.962209,54 14,56.014205 14,58.5876629 L14,65.4123371 C14,67.985795 15.962209,70 18.4692339,70 L26.5307661,70 C29.037791,70 31,67.985795 31,65.4123371 L31,58.5876629 C31,56.123483 29.037791,54 26.5307661,54 Z M28.8207363,65.4076394 C28.8207363,66.7489514 27.7311045,67.7582909 26.5307661,67.7582909 L18.4692339,67.7582909 C17.1625474,67.7582909 16.1792637,66.6397852 16.1792637,65.4076394 L16.1792637,58.5829652 C16.1792637,57.2416532 17.2688955,56.2323136 18.4692339,56.2323136 L26.5307661,56.2323136 C27.8374526,56.2323136 28.8207363,57.3508193 28.8207363,58.5829652 L28.8207363,65.4076394 Z" id="Fill-6"></path>
                <path d="M47.5307661,54 L39.4692339,54 C36.962209,54 35,56.014205 35,58.5876629 L35,65.4123371 C35,67.985795 36.962209,70 39.4692339,70 L47.5307661,70 C50.037791,70 52,67.985795 52,65.4123371 L52,58.5876629 C52,56.123483 50.037791,54 47.5307661,54 Z M49.8207363,65.4076394 C49.8207363,66.7489514 48.7311045,67.7582909 47.5307661,67.7582909 L39.4692339,67.7582909 C38.1625474,67.7582909 37.1792637,66.6397852 37.1792637,65.4076394 L37.1792637,58.5829652 C37.1792637,57.2416532 38.2688955,56.2323136 39.4692339,56.2323136 L47.5307661,56.2323136 C48.8374526,56.2323136 49.8207363,57.3508193 49.8207363,58.5829652 L49.8207363,65.4076394 Z" id="Fill-7"></path>
                <path d="M67.5307661,54 L59.4692339,54 C56.962209,54 55,56.014205 55,58.5876629 L55,65.4123371 C55,67.985795 56.962209,70 59.4692339,70 L67.5307661,70 C70.037791,70 72,67.985795 72,65.4123371 L72,58.5876629 C71.9957504,56.123483 69.9271934,54 67.5307661,54 Z M69.8164868,65.4076394 C69.8164868,66.7489514 68.7268549,67.7582909 67.5265165,67.7582909 L59.4649844,67.7582909 C58.1582979,67.7582909 57.1750141,66.6397852 57.1750141,65.4076394 L57.1750141,58.5829652 C57.1750141,57.2416532 58.2646459,56.2323136 59.4649844,56.2323136 L67.5265165,56.2323136 C68.833203,56.2323136 69.8164868,57.3508193 69.8164868,58.5829652 L69.8164868,65.4076394 Z" id="Fill-8"></path>
                <path d="M26.5307661,72 L18.4692339,72 C15.962209,72 14,74.014205 14,76.5876629 L14,83.4123371 C14,85.985795 15.962209,88 18.4692339,88 L26.5307661,88 C29.037791,88 31,85.985795 31,83.4123371 L31,76.5876629 C31,74.123483 29.037791,72 26.5307661,72 Z M28.8207363,83.4076394 C28.8207363,84.7489514 27.7311045,85.7582909 26.5307661,85.7582909 L18.4692339,85.7582909 C17.1625474,85.7582909 16.1792637,84.6397852 16.1792637,83.4076394 L16.1792637,76.5829652 C16.1792637,75.2416532 17.2688955,74.2323136 18.4692339,74.2323136 L26.5307661,74.2323136 C27.8374526,74.2323136 28.8207363,75.3508193 28.8207363,76.5829652 L28.8207363,83.4076394 Z" id="Fill-9"></path>
                <path d="M47.5307661,72 L39.4692339,72 C36.962209,72 35,74.014205 35,76.5876629 L35,83.4123371 C35,85.985795 36.962209,88 39.4692339,88 L47.5307661,88 C50.037791,88 52,85.985795 52,83.4123371 L52,76.5876629 C52,74.123483 50.037791,72 47.5307661,72 Z M49.8207363,83.4076394 C49.8207363,84.7489514 48.7311045,85.7582909 47.5307661,85.7582909 L39.4692339,85.7582909 C38.1625474,85.7582909 37.1792637,84.6397852 37.1792637,83.4076394 L37.1792637,76.5829652 C37.1792637,75.2416532 38.2688955,74.2323136 39.4692339,74.2323136 L47.5307661,74.2323136 C48.8374526,74.2323136 49.8207363,75.3508193 49.8207363,76.5829652 L49.8207363,83.4076394 Z" id="Fill-10"></path>
                <path d="M67.5307661,72 L59.4692339,72 C56.962209,72 55,74.014205 55,76.5876629 L55,83.4123371 C55,85.985795 56.962209,88 59.4692339,88 L67.5307661,88 C70.037791,88 72,85.985795 72,83.4123371 L72,76.5876629 C71.9957504,74.123483 69.9271934,72 67.5307661,72 Z M69.8164868,83.4076394 C69.8164868,84.7489514 68.7268549,85.7582909 67.5265165,85.7582909 L59.4649844,85.7582909 C58.1582979,85.7582909 57.1750141,84.6397852 57.1750141,83.4076394 L57.1750141,76.5829652 C57.1750141,75.2416532 58.2646459,74.2323136 59.4649844,74.2323136 L67.5265165,74.2323136 C68.833203,74.2323136 69.8164868,75.3508193 69.8164868,76.5829652 L69.8164868,83.4076394 Z" id="Fill-11"></path>
            </g>
        </g>
    </g>
</svg>